<svg version="1.1" id="Capa_1" xmlns="http://www.w3.org/2000/svg" xmlns:xlink="http://www.w3.org/1999/xlink" x="0px" y="0px" viewBox="0 0 511.981 511.981" style="enable-background:new 0 0 511.981 511.981;" xml:space="preserve">
<g>
	<g>
		<path style="fill:none;stroke:#000000;stroke-width:15;stroke-linecap:round;stroke-linejoin:round;stroke-miterlimit:10;" d="&#10;&#9;&#9;&#9;M113.833,57.898H63.754c-6.748,0-12.218,5.47-12.218,12.218v57.108c0,16.813,13.629,30.442,30.442,30.442h0v23.876h41.083v-23.876&#10;&#9;&#9;&#9;h0c16.813,0,30.442-13.629,30.442-30.442V97.567C153.501,75.658,135.741,57.898,113.833,57.898z"/>
		<path style="fill:none;stroke:#000000;stroke-width:15;stroke-linecap:round;stroke-linejoin:round;stroke-miterlimit:10;" d="&#10;&#9;&#9;&#9;M197.54,218.062L197.54,218.062c0,11.824-9.586,21.41-21.41,21.41H28.91c-11.824,0-21.41-9.586-21.41-21.41v0&#10;&#9;&#9;&#9;c0-20.169,16.351-36.52,36.52-36.52h117C181.189,181.542,197.54,197.893,197.54,218.062z"/>
		<g>
			
				<line style="fill:none;stroke:#000000;stroke-width:15;stroke-linecap:round;stroke-linejoin:round;stroke-miterlimit:10;" x1="80.811" y1="91.925" x2="80.811" y2="98.046"/>
			
				<line style="fill:none;stroke:#000000;stroke-width:15;stroke-linecap:round;stroke-linejoin:round;stroke-miterlimit:10;" x1="124.206" y1="91.925" x2="124.206" y2="98.046"/>
		</g>
		<g>
			<path style="fill:none;stroke:#000000;stroke-width:15;stroke-linecap:round;stroke-linejoin:round;stroke-miterlimit:10;" d="&#10;&#9;&#9;&#9;&#9;M201.605,340.461v45.79c0,9.8-3.97,18.66-10.39,25.08c-6.42,6.41-15.28,10.38-25.07,10.38v23.89h-41.1v-23.89&#10;&#9;&#9;&#9;&#9;c-19.58,0-35.46-15.87-35.46-35.46v-45.79"/>
			<path style="fill:none;stroke:#000000;stroke-width:15;stroke-linecap:round;stroke-linejoin:round;stroke-miterlimit:10;" d="&#10;&#9;&#9;&#9;&#9;M126.671,503.553H71.954c-11.83,0-21.419-9.59-21.419-21.419v0c0-20.178,16.358-36.536,36.536-36.536h117.051&#10;&#9;&#9;&#9;&#9;c20.178,0,36.536,16.358,36.536,36.536v0c0,11.829-9.59,21.419-21.419,21.419h-57.492"/>
			<path style="fill:none;stroke:#000000;stroke-width:15;stroke-linecap:round;stroke-linejoin:round;stroke-miterlimit:10;" d="&#10;&#9;&#9;&#9;&#9;M89.587,371.329H75.676c-6.208,0-11.241-5.033-11.241-11.241v-8.382c0-6.208,5.033-11.241,11.241-11.241h13.912V371.329z"/>
			<path style="fill:none;stroke:#000000;stroke-width:15;stroke-linecap:round;stroke-linejoin:round;stroke-miterlimit:10;" d="&#10;&#9;&#9;&#9;&#9;M201.602,371.329h14.649c6.208,0,11.241-5.033,11.241-11.241v-8.382c0-6.208-5.033-11.241-11.241-11.241h-14.649V371.329z"/>
			<g>
				
					<line style="fill:none;stroke:#000000;stroke-width:15;stroke-linecap:round;stroke-linejoin:round;stroke-miterlimit:10;" x1="118.876" y1="355.941" x2="118.876" y2="362.065"/>
				
					<line style="fill:none;stroke:#000000;stroke-width:15;stroke-linecap:round;stroke-linejoin:round;stroke-miterlimit:10;" x1="172.295" y1="355.941" x2="172.295" y2="362.065"/>
			</g>
			<path style="fill:none;stroke:#000000;stroke-width:15;stroke-linecap:round;stroke-linejoin:round;stroke-miterlimit:10;" d="&#10;&#9;&#9;&#9;&#9;M75.676,340.465h13.912c0,0,20.521-10.106,27.287-28.558c0,0,28.586,20.611,51.812,20.611s25.69-2.815,25.69-2.815l7.225,10.762&#10;&#9;&#9;&#9;&#9;h10.042c7.762,0,14.054-6.292,14.054-14.054v-12.113c0-25.295-20.506-45.801-45.801-45.801H120.03&#10;&#9;&#9;&#9;&#9;c-10.141,0-18.837,7.241-20.672,17.216l0,0h0c-13.08,0-23.683,10.603-23.683,23.683V340.465z"/>
		</g>
		<path style="fill:none;stroke:#000000;stroke-width:15;stroke-linecap:round;stroke-linejoin:round;stroke-miterlimit:10;" d="&#10;&#9;&#9;&#9;M389.889,445.601h14.37h23.6c20.18,0,36.54,16.36,36.54,36.53c0,11.83-9.59,21.42-21.42,21.42h-147.28&#10;&#9;&#9;&#9;c-11.83,0-21.42-9.59-21.42-21.42c0-10.08,4.09-19.22,10.7-25.83c6.61-6.61,15.74-10.7,25.83-10.7h23.61h14.37"/>
		<path style="fill:none;stroke:#000000;stroke-width:15;stroke-linecap:round;stroke-linejoin:round;stroke-miterlimit:10;" d="&#10;&#9;&#9;&#9;M313.328,371.329h-13.912c-6.208,0-11.241-5.033-11.241-11.241v-8.382c0-6.208,5.033-11.241,11.241-11.241h13.912V371.329z"/>
		<path style="fill:none;stroke:#000000;stroke-width:15;stroke-linecap:round;stroke-linejoin:round;stroke-miterlimit:10;" d="&#10;&#9;&#9;&#9;M425.343,371.329h14.649c6.208,0,11.241-5.033,11.241-11.241v-8.382c0-6.208-5.033-11.241-11.241-11.241h-14.649V371.329z"/>
		<g>
			
				<line style="fill:none;stroke:#000000;stroke-width:15;stroke-linecap:round;stroke-linejoin:round;stroke-miterlimit:10;" x1="342.616" y1="363.941" x2="342.616" y2="370.065"/>
			
				<line style="fill:none;stroke:#000000;stroke-width:15;stroke-linecap:round;stroke-linejoin:round;stroke-miterlimit:10;" x1="396.035" y1="363.941" x2="396.035" y2="370.065"/>
		</g>
		<path style="fill:none;stroke:#000000;stroke-width:15;stroke-linecap:round;stroke-linejoin:round;stroke-miterlimit:10;" d="&#10;&#9;&#9;&#9;M180.133,133.781v28.191c0,10.684-8.661,19.346-19.346,19.571H44.252c-10.684-0.225-19.346-8.887-19.346-19.571V67.705&#10;&#9;&#9;&#9;c0-21.288,17.258-38.546,38.546-38.546h0l0,0c9.719-13.045,25.03-20.731,41.298-20.731h0c41.633,0,75.383,33.75,75.383,75.383&#10;&#9;&#9;&#9;v14.819"/>
		<path style="fill:none;stroke:#000000;stroke-width:15;stroke-linecap:round;stroke-linejoin:round;stroke-miterlimit:10;" d="&#10;&#9;&#9;&#9;M429.091,340.465H309.949c-5.08,0-9.198-4.118-9.198-9.198v-18.78c0-20.96,16.992-37.952,37.952-37.952h61.632&#10;&#9;&#9;&#9;c20.96,0,37.952,16.992,37.952,37.952v18.78C438.288,336.347,434.17,340.465,429.091,340.465z"/>
		<path style="fill:none;stroke:#000000;stroke-width:15;stroke-linecap:round;stroke-linejoin:round;stroke-miterlimit:10;" d="&#10;&#9;&#9;&#9;M322.219,409.741l-4.93,6.37c-5.72,7.39-16.35,8.75-23.74,3.03c-7.4-5.72-8.76-16.35-3.04-23.74l14.04-18.15&#10;&#9;&#9;&#9;c2.31-2.99,5.41-4.99,8.78-5.93"/>
		<path style="fill:none;stroke:#000000;stroke-width:15;stroke-linecap:round;stroke-linejoin:round;stroke-miterlimit:10;" d="&#10;&#9;&#9;&#9;M425.339,371.351c3.32,0.96,6.38,2.95,8.66,5.9l14.04,18.15c5.72,7.39,4.36,18.02-3.04,23.74c-7.39,5.72-18.02,4.36-23.74-3.03&#10;&#9;&#9;&#9;l-4.87-6.3"/>
		
			<polyline style="fill:none;stroke:#000000;stroke-width:15;stroke-linecap:round;stroke-linejoin:round;stroke-miterlimit:10;" points="&#10;&#9;&#9;&#9;89.583,197.483 102.52,181.546 115.457,197.483 &#9;&#9;"/>
		<path style="fill:none;stroke:#000000;stroke-width:15;stroke-linecap:round;stroke-linejoin:round;stroke-miterlimit:10;" d="&#10;&#9;&#9;&#9;M459.499,134.751c21.99-9.83,36.33-27.25,36.33-52.18c0-40.95-12.69-74.14-86.44-74.14c-71.49,0-86.43,33.19-86.43,74.14&#10;&#9;&#9;&#9;c0,24.98,14.41,42.43,36.48,52.24"/>
		<path style="fill:none;stroke:#000000;stroke-width:15;stroke-linecap:round;stroke-linejoin:round;stroke-miterlimit:10;" d="&#10;&#9;&#9;&#9;M460.443,80.134c-13.286-1.325-20.621-10.532-24.019-24.953l-63.977,14.331c-8.165,1.829-13.97,9.077-13.97,17.445v40.268&#10;&#9;&#9;&#9;c0,16.813,13.629,30.442,30.442,30.442h0v23.876h41.083v-23.876h0c16.812,0,30.442-13.629,30.442-30.442V80.134z"/>
		<path style="fill:none;stroke:#000000;stroke-width:15;stroke-linecap:round;stroke-linejoin:round;stroke-miterlimit:10;" d="&#10;&#9;&#9;&#9;M504.481,218.062L504.481,218.062c0,11.824-9.586,21.41-21.41,21.41h-147.22c-11.824,0-21.41-9.586-21.41-21.41v0&#10;&#9;&#9;&#9;c0-20.169,16.351-36.52,36.52-36.52h117C488.13,181.542,504.481,197.893,504.481,218.062z"/>
		<g>
			
				<line style="fill:none;stroke:#000000;stroke-width:15;stroke-linecap:round;stroke-linejoin:round;stroke-miterlimit:10;" x1="387.752" y1="95.925" x2="387.752" y2="102.046"/>
			
				<line style="fill:none;stroke:#000000;stroke-width:15;stroke-linecap:round;stroke-linejoin:round;stroke-miterlimit:10;" x1="431.147" y1="95.925" x2="431.147" y2="102.046"/>
		</g>
		
			<polyline style="fill:none;stroke:#000000;stroke-width:15;stroke-linecap:round;stroke-linejoin:round;stroke-miterlimit:10;" points="&#10;&#9;&#9;&#9;396.524,197.483 409.461,181.546 422.398,197.483 &#9;&#9;"/>
		<path style="fill:none;stroke:#000000;stroke-width:15;stroke-linecap:round;stroke-linejoin:round;stroke-miterlimit:10;" d="&#10;&#9;&#9;&#9;M313.349,340.461c-0.02,0.21-0.02,0.43-0.02,0.65v45.14c0,19.59,15.87,35.46,35.46,35.46v23.89h41.1v-23.89&#10;&#9;&#9;&#9;c9.79,0,18.65-3.97,25.07-10.38c6.41-6.42,10.38-15.28,10.38-25.08v-45.14c0-0.22,0-0.44-0.02-0.65"/>
		
			<polyline style="fill:none;stroke:#000000;stroke-width:15;stroke-linecap:round;stroke-linejoin:round;stroke-miterlimit:10;" points="&#10;&#9;&#9;&#9;132.66,461.535 145.597,445.598 158.534,461.535 &#9;&#9;"/>
		
			<polyline style="fill:none;stroke:#000000;stroke-width:15;stroke-linecap:round;stroke-linejoin:round;stroke-miterlimit:10;" points="&#10;&#9;&#9;&#9;356.397,461.535 369.334,445.598 382.271,461.535 &#9;&#9;"/>
		<g>
			<g>
				<path style="fill:none;stroke:#000000;stroke-width:15;stroke-linecap:round;stroke-linejoin:round;stroke-miterlimit:10;" d="&#10;&#9;&#9;&#9;&#9;&#9;M301.629,161.136l-8.677-5.441c0.444-2.249,0.682-4.572,0.682-6.952c0-2.379-0.238-4.703-0.682-6.952l8.677-5.441&#10;&#9;&#9;&#9;&#9;&#9;c3.177-1.992,4.137-6.182,2.146-9.359l-6.279-10.015c-1.992-3.177-6.182-4.137-9.359-2.145l-8.68,5.443&#10;&#9;&#9;&#9;&#9;&#9;c-2.665-2.016-5.623-3.662-8.798-4.871v-10.242c0-3.75-3.04-6.789-6.789-6.789h-11.82c-3.75,0-6.789,3.04-6.789,6.789v10.242&#10;&#9;&#9;&#9;&#9;&#9;c-3.174,1.21-6.133,2.856-8.798,4.871l-8.68-5.443c-3.177-1.992-7.367-1.031-9.359,2.145l-6.279,10.015&#10;&#9;&#9;&#9;&#9;&#9;c-1.992,3.177-1.031,7.367,2.145,9.359l8.677,5.441c-0.444,2.249-0.682,4.572-0.682,6.952c0,2.379,0.238,4.703,0.682,6.952&#10;&#9;&#9;&#9;&#9;&#9;l-8.677,5.441c-3.177,1.992-4.137,6.182-2.145,9.359l6.279,10.015c1.992,3.177,6.182,4.137,9.359,2.145l8.68-5.443&#10;&#9;&#9;&#9;&#9;&#9;c2.665,2.016,5.623,3.662,8.798,4.871v10.242c0,3.75,3.04,6.789,6.789,6.789h11.82c3.75,0,6.789-3.04,6.789-6.789v-10.242&#10;&#9;&#9;&#9;&#9;&#9;c3.174-1.21,6.133-2.856,8.798-4.871l8.68,5.443c3.177,1.992,7.367,1.031,9.359-2.145l6.279-10.015&#10;&#9;&#9;&#9;&#9;&#9;C305.766,167.318,304.806,163.128,301.629,161.136z"/>
			</g>
			
				<line style="fill:none;stroke:#000000;stroke-width:15;stroke-linecap:round;stroke-linejoin:round;stroke-miterlimit:10;" x1="257.959" y1="148.744" x2="257.959" y2="148.744"/>
		</g>
	</g>
</g>
<g>
</g>
<g>
</g>
<g>
</g>
<g>
</g>
<g>
</g>
<g>
</g>
<g>
</g>
<g>
</g>
<g>
</g>
<g>
</g>
<g>
</g>
<g>
</g>
<g>
</g>
<g>
</g>
<g>
</g>
</svg>